<svg width="53" height="47" fill="none" xmlns="http://www.w3.org/2000/svg"><path d="M48.966.002C1.043.009 4.01-.017 3.622.022 1.658.219.107 1.807.005 3.764A3.682 3.682 0 0 0 0 3.968v39.066C0 45.22 1.81 47 4.034 47h44.932C51.19 47 53 45.221 53 43.034V3.968C53 1.786 51.195.002 48.966.002zM4.034 2.037h44.932c1.083 0 1.964.867 1.964 1.931v5.193H2.07V3.968c0-1.064.881-1.93 1.964-1.93zm44.932 42.927H4.034c-1.083 0-1.964-.866-1.964-1.93V11.196h48.86v31.838c0 1.064-.881 1.93-1.964 1.93z" fill="#0085FF"/><path d="M45.691 13.223H35.574c-.571 0-1.035.455-1.035 1.018 0 .561.464 1.017 1.035 1.017h10.117a.83.83 0 0 1 .836.822v4.862a.83.83 0 0 1-.836.822H7.427a.83.83 0 0 1-.835-.822V16.08a.83.83 0 0 1 .835-.822h19.866c.572 0 1.035-.456 1.035-1.017 0-.563-.463-1.018-1.035-1.018H7.427c-1.602 0-2.906 1.281-2.906 2.857v4.862c0 1.576 1.304 2.857 2.906 2.857h38.264c1.602 0 2.906-1.281 2.906-2.857V16.08c0-1.576-1.304-2.857-2.906-2.857zM29.155 25.041H7.427c-1.602 0-2.906 1.282-2.906 2.857V40.6c0 1.576 1.304 2.858 2.906 2.858h21.728c1.603 0 2.907-1.282 2.907-2.858V27.9c0-1.576-1.304-2.858-2.907-2.858zm.836 15.558a.83.83 0 0 1-.836.822H7.427a.83.83 0 0 1-.835-.822V27.9a.83.83 0 0 1 .835-.822h21.728a.83.83 0 0 1 .836.821V40.6zM45.69 25.041h-7.036c-1.602 0-2.906 1.282-2.906 2.857V40.6c0 1.576 1.304 2.858 2.906 2.858h7.037c1.602 0 2.906-1.282 2.906-2.858V27.9c0-1.576-1.304-2.858-2.906-2.858zm.837 15.558a.83.83 0 0 1-.836.822h-7.037a.83.83 0 0 1-.836-.822V27.9a.83.83 0 0 1 .836-.822h7.037a.83.83 0 0 1 .836.821V40.6zm-1.925-33.4c.404.397 1.06.397 1.464 0l.383-.376.382.376c.404.397 1.06.397 1.464 0a1.007 1.007 0 0 0 0-1.44l-.383-.376.383-.376a1.006 1.006 0 0 0 0-1.44 1.048 1.048 0 0 0-1.464 0l-.382.377-.383-.376a1.047 1.047 0 0 0-1.464 0 1.006 1.006 0 0 0 0 1.439l.382.376-.382.376a1.006 1.006 0 0 0 0 1.44z" fill="#0085FF"/><path d="M44.605 28.496H39.74c-.571 0-1.035.456-1.035 1.018s.464 1.018 1.035 1.018h4.865c.572 0 1.036-.456 1.036-1.018 0-.563-.464-1.018-1.035-1.018zm0 4.338H39.74c-.571 0-1.035.455-1.035 1.018 0 .562.464 1.018 1.035 1.018h4.865c.572 0 1.036-.456 1.036-1.018 0-.563-.464-1.018-1.035-1.018zm0 4.338H39.74c-.571 0-1.035.455-1.035 1.018 0 .562.464 1.018 1.035 1.018h4.865c.572 0 1.036-.456 1.036-1.018 0-.563-.464-1.018-1.035-1.018zm-29.297-5.85a1.048 1.048 0 0 0-1.464 0l-1.513 1.487-1.513-1.487a1.047 1.047 0 0 0-1.464 0 1.005 1.005 0 0 0 0 1.439l1.513 1.487-1.513 1.488a1.005 1.005 0 0 0 0 1.44c.404.397 1.06.397 1.464 0l1.513-1.488 1.514 1.488a1.047 1.047 0 0 0 1.463 0 1.005 1.005 0 0 0 0-1.44l-1.513-1.487 1.513-1.488a1.005 1.005 0 0 0 0-1.44zm11.922 0a1.047 1.047 0 0 0-1.464 0l-1.513 1.487-1.513-1.487a1.047 1.047 0 0 0-1.464 0 1.005 1.005 0 0 0 0 1.439l1.513 1.487-1.513 1.488a1.006 1.006 0 0 0 0 1.44c.404.397 1.06.397 1.464 0l1.513-1.488 1.513 1.488c.404.397 1.06.397 1.464 0a1.005 1.005 0 0 0 0-1.44l-1.513-1.488 1.513-1.487a1.005 1.005 0 0 0 0-1.44zM38.205 7.499h2.998c.572 0 1.035-.456 1.035-1.018 0-.563-.463-1.018-1.035-1.018h-2.998c-.572 0-1.035.455-1.035 1.018 0 .562.463 1.018 1.035 1.018zm-6.768 7.759c.572 0 1.035-.456 1.035-1.017 0-.563-.463-1.018-1.035-1.018h-.003c-.571 0-1.034.455-1.034 1.018 0 .561.465 1.017 1.037 1.017z" fill="#0085FF"/></svg>