<svg width="47" height="50" fill="none" xmlns="http://www.w3.org/2000/svg"><path d="M45.892 47.767h-1.969V16.994c0-1.52-1.227-2.756-2.735-2.756h-4.723c-1.508 0-2.735 1.236-2.735 2.756v30.773h-5.077V31.002c0-1.519-1.226-2.755-2.734-2.755h-4.724c-1.508 0-2.734 1.236-2.734 2.756v16.764h-5.077v-8.612c0-1.52-1.227-2.756-2.735-2.756H5.925c-1.507 0-2.734 1.237-2.734 2.756v8.612H1.108c-.61 0-1.108.5-1.108 1.116C0 49.5.497 50 1.108 50h44.784c.61 0 1.108-.5 1.108-1.117 0-.615-.497-1.116-1.108-1.116zm-9.946-30.773c0-.288.233-.523.519-.523h4.724c.285 0 .518.235.518.523v30.773h-5.76V16.994zm-9.509 14.009v16.764h-5.76V31.002a.52.52 0 0 1 .518-.522h4.724a.52.52 0 0 1 .518.523zm-15.27 8.152v8.612h-5.76v-8.612c0-.288.232-.523.518-.523h4.724c.286 0 .518.235.518.523zM9.37 27.322c.295 0 .574-.116.783-.327L26.69 10.331l3.49 3.517a1.104 1.104 0 0 0 1.567 0l9.96-10.036v2.931c0 .616.497 1.117 1.108 1.117.61 0 1.108-.501 1.108-1.117v-5.53l-.002-.038v-.009a1.123 1.123 0 0 0-.323-.839 1.105 1.105 0 0 0-.832-.325h-.009A.565.565 0 0 0 42.718 0H36.89c-.61 0-1.108.5-1.108 1.117 0 .615.497 1.116 1.108 1.116h3.25l-9.176 9.246-3.49-3.516a1.096 1.096 0 0 0-.783-.327c-.296 0-.574.116-.783.327L8.586 25.416a1.124 1.124 0 0 0 0 1.58c.209.21.487.326.783.326zM6.122 30.71c.61 0 1.108-.501 1.108-1.117s-.497-1.116-1.108-1.116c-.611 0-1.108.5-1.108 1.116 0 .616.497 1.117 1.108 1.117z" fill="#0085FF"/></svg>