<svg width="59" height="57" fill="none" xmlns="http://www.w3.org/2000/svg"><path d="M58.886 31.21a23.5 23.5 0 0 0-6.703-14.221A23.11 23.11 0 0 0 40.8 10.705V7.762a3.942 3.942 0 0 0 2.972-3.823C43.772 1.767 42.015 0 39.854 0h-8.297c-2.16 0-3.918 1.767-3.918 3.939a3.943 3.943 0 0 0 2.972 3.823v2.951a23.1 23.1 0 0 0-11.348 6.276 23.415 23.415 0 0 0-1.956 2.233.846.846 0 0 0-.087-.005H9.008c-.637 0-1.153.519-1.153 1.159s.516 1.158 1.153 1.158h6.73a23.279 23.279 0 0 0-2.044 4.453H1.152c-.636 0-1.152.519-1.152 1.159s.516 1.158 1.152 1.158h11.891a23.656 23.656 0 0 0-.572 4.454H7.375c-.636 0-1.152.518-1.152 1.158 0 .64.516 1.159 1.152 1.159h5.133c.097 1.5.337 2.991.72 4.453H5.761c-.636 0-1.153.518-1.153 1.158 0 .64.517 1.159 1.153 1.159h8.2a23.277 23.277 0 0 0 5.302 8.24 23.27 23.27 0 0 0 14.159 6.742 23.244 23.244 0 0 0 14.987-3.662 1.162 1.162 0 0 0 .336-1.603 1.148 1.148 0 0 0-1.594-.339c-8.246 5.399-19.29 4.232-26.259-2.775-8.177-8.222-8.177-21.599 0-29.82 8.177-8.222 21.483-8.222 29.66 0 6.96 6.997 8.128 18.09 2.776 26.377a1.162 1.162 0 0 0 .339 1.603 1.148 1.148 0 0 0 1.594-.341c2.86-4.428 4.147-9.775 3.624-15.058zM29.944 3.938a1.62 1.62 0 0 1 1.613-1.622h8.297c.89 0 1.614.728 1.614 1.622a1.62 1.62 0 0 1-1.614 1.622h-8.297a1.62 1.62 0 0 1-1.613-1.622zm2.972 6.376V7.879h5.58v2.432a23.336 23.336 0 0 0-5.58.004z" fill="#0085FF"/><path d="M51.37 48.107a1.156 1.156 0 0 0-1.153 1.159 1.152 1.152 0 0 0 1.967.819c.214-.216.337-.514.337-.819a1.17 1.17 0 0 0-.337-.82 1.16 1.16 0 0 0-.815-.339zM35.724 15.565c-9.857 0-17.876 8.062-17.876 17.972 0 9.91 8.019 17.973 17.876 17.973 9.857 0 17.877-8.063 17.877-17.973 0-9.91-8.02-17.972-17.877-17.972zm0 33.628c-8.586 0-15.572-7.023-15.572-15.656 0-8.632 6.985-15.655 15.572-15.655s15.572 7.023 15.572 15.655c0 8.633-6.985 15.656-15.572 15.656z" fill="#0085FF"/><path d="m43.012 24.57-5.708 5.738a3.543 3.543 0 0 0-1.581-.371c-.568 0-1.105.134-1.582.37l-2.554-2.567a1.148 1.148 0 0 0-1.63 0 1.162 1.162 0 0 0 0 1.638l2.554 2.569a3.59 3.59 0 0 0-.37 1.59c0 1.985 1.607 3.6 3.582 3.6 1.974 0 3.58-1.615 3.58-3.6 0-.57-.133-1.11-.369-1.59l5.708-5.739c.45-.452.45-1.186 0-1.638a1.148 1.148 0 0 0-1.63 0zm-7.29 10.25a1.28 1.28 0 0 1-1.275-1.283 1.28 1.28 0 0 1 1.276-1.283 1.28 1.28 0 0 1 1.276 1.283c0 .707-.573 1.283-1.276 1.283zm12.322-2.427h-1.067c-.636 0-1.153.518-1.153 1.158 0 .64.517 1.159 1.153 1.159h1.067c.637 0 1.153-.519 1.153-1.159s-.516-1.158-1.153-1.158zm-23.574-.028h-1.068c-.636 0-1.152.519-1.152 1.159s.516 1.158 1.152 1.158h1.068c.636 0 1.152-.518 1.152-1.158 0-.64-.516-1.159-1.152-1.159zm11.268-8.982c.636 0 1.153-.519 1.153-1.159v-1.073c0-.64-.517-1.159-1.153-1.159s-1.152.519-1.152 1.159v1.073c0 .64.516 1.159 1.152 1.159zm-.029 20.31c-.636 0-1.152.519-1.152 1.159v1.073c0 .64.516 1.159 1.152 1.159.636 0 1.152-.519 1.152-1.159v-1.073c0-.64-.516-1.159-1.152-1.159zM1.152 39.527a1.158 1.158 0 0 0 0 2.317 1.159 1.159 0 0 0 0-2.317z" fill="#0085FF"/></svg>