<svg width="56" height="46" fill="none" xmlns="http://www.w3.org/2000/svg"><path d="M28 37.238a1.095 1.095 0 1 0 .002 2.19 1.095 1.095 0 0 0-.002-2.19z" fill="#0085FF"/><path d="M51.306 1.683C48.615.598 45.116 0 41.453 0c-3.662 0-7.162.598-9.853 1.683-1.59.642-2.805 1.426-3.6 2.306-.795-.88-2.01-1.664-3.6-2.306C21.71.598 18.21 0 14.547 0c-3.663 0-7.162.598-9.853 1.683C1.667 2.904 0 4.64 0 6.571v26.286c0 1.931 1.667 3.667 4.694 4.888 2.503 1.01 5.705 1.597 9.087 1.674v.01C13.781 43.175 19.894 46 28 46c8.106 0 14.219-2.825 14.219-6.571v-.01c3.382-.077 6.584-.664 9.087-1.674C54.333 36.525 56 34.79 56 32.857V6.571c0-1.93-1.667-3.667-4.694-4.888zm2.507 24.603c0 .935-1.274 2.03-3.324 2.856-2.218.895-5.197 1.436-8.27 1.514v-4.38c3.382-.077 6.584-.664 9.087-1.674.983-.396 1.821-.847 2.507-1.34v3.024zM26.905 13.143c0 .935-1.273 2.03-3.323 2.856-2.403.97-5.696 1.525-9.036 1.525s-6.634-.556-9.036-1.525c-2.05-.827-3.324-1.921-3.324-2.856v-3.025c.686.494 1.524.945 2.507 1.341 2.691 1.086 6.19 1.684 9.853 1.684 3.662 0 7.162-.598 9.853-1.684.983-.396 1.82-.847 2.506-1.34v3.024zM4.694 18.03c2.691 1.085 6.19 1.683 9.853 1.683 3.662 0 7.162-.598 9.853-1.683.983-.396 1.82-.847 2.506-1.341v3.044c-2.83.096-5.543.56-7.738 1.335-2.201.776-3.785 1.811-4.647 3.026-3.33-.003-6.614-.558-9.01-1.525-2.05-.826-3.324-1.92-3.324-2.856V16.69c.686.494 1.524.945 2.507 1.34zm-2.506 5.23c.685.494 1.523.945 2.506 1.341 2.503 1.01 5.705 1.597 9.088 1.674v4.38c-3.074-.078-6.052-.62-8.271-1.514-2.05-.827-3.324-1.921-3.324-2.856V23.26zm13.896 2.487c.811-1.89 5.49-3.843 11.916-3.843s11.105 1.954 11.915 3.84c.078.184.116.361.116.54 0 .964-1.185 2.033-3.171 2.862-2.349.98-5.495 1.52-8.86 1.52-3.364 0-6.511-.54-8.86-1.52-1.986-.829-3.171-1.898-3.171-2.861 0-.18.038-.357.115-.538zm37.728-6.034c0 .935-1.273 2.03-3.323 2.856-2.396.967-5.679 1.522-9.01 1.525-.86-1.214-2.445-2.25-4.647-3.026-2.195-.774-4.909-1.24-7.738-1.335V16.69c.685.494 1.523.945 2.506 1.34 2.691 1.086 6.19 1.684 9.853 1.684 3.662 0 7.162-.598 9.853-1.683.983-.396 1.821-.847 2.507-1.341v3.024zm0-6.571c0 .935-1.273 2.03-3.323 2.856-2.402.97-5.696 1.525-9.036 1.525s-6.633-.556-9.036-1.525c-2.05-.827-3.323-1.921-3.323-2.856v-3.025c.685.494 1.523.945 2.506 1.341 2.691 1.086 6.19 1.684 9.853 1.684 3.662 0 7.162-.598 9.853-1.684.983-.396 1.821-.847 2.507-1.34v3.024zM32.418 3.715c2.403-.969 5.696-1.525 9.036-1.525s6.633.556 9.036 1.525c2.05.827 3.324 1.921 3.324 2.856 0 .935-1.274 2.03-3.324 2.857-2.402.969-5.696 1.524-9.036 1.524s-6.633-.555-9.036-1.524c-2.05-.827-3.323-1.922-3.323-2.857 0-.935 1.273-2.029 3.323-2.856zm-26.906 0c2.402-.969 5.696-1.525 9.036-1.525s6.633.556 9.036 1.525c2.05.827 3.323 1.921 3.323 2.856 0 .935-1.273 2.03-3.323 2.857-2.403.969-5.696 1.524-9.036 1.524s-6.634-.555-9.036-1.524C3.46 8.6 2.187 7.506 2.187 6.57c0-.935 1.274-2.029 3.324-2.856zm0 31.998c-2.05-.827-3.324-1.92-3.324-2.856v-3.024c.686.494 1.524.945 2.507 1.34 2.503 1.01 5.705 1.597 9.087 1.675v4.38c-3.073-.078-6.051-.62-8.27-1.515zM36.86 42.29c-2.349.98-5.495 1.52-8.86 1.52-3.364 0-6.511-.54-8.86-1.52-1.986-.829-3.171-1.898-3.171-2.861v-2.961c.248.18.521.358.825.534 1.698.984 4.01 1.712 6.683 2.105a1.094 1.094 0 0 0 .318-2.167c-5.083-.747-7.826-2.661-7.826-4.083v-2.97c2.475 1.814 6.845 2.97 12.031 2.97 5.186 0 9.556-1.156 12.031-2.97v2.97c0 1.422-2.743 3.336-7.826 4.083a1.095 1.095 0 0 0 .318 2.167c2.673-.393 4.984-1.12 6.683-2.105.304-.176.577-.355.825-.534v2.96c0 .964-1.185 2.033-3.171 2.862zm13.63-6.577c-2.22.895-5.198 1.437-8.271 1.514v-4.38c3.382-.077 6.584-.664 9.087-1.673.983-.397 1.821-.847 2.507-1.341v3.024c0 .935-1.274 2.03-3.324 2.856z" fill="#0085FF"/></svg>