<svg width="56" height="57" fill="none" xmlns="http://www.w3.org/2000/svg"><path d="m55.722 24.71-9.664-10.984a1.106 1.106 0 0 0-.83-.376H10.772c-.317 0-.62.136-.83.376L.278 24.71a1.117 1.117 0 0 0 .106 1.58l.006.007 26.78 30.328a1.106 1.106 0 0 0 1.66 0l26.78-30.328.007-.008a1.113 1.113 0 0 0 .105-1.579zM28 16.265l7.986 8.069H20.014L28 16.264zm-10.337 7.287-4.926-7.976h12.819l-7.893 7.976zm12.781-7.976h12.819l-4.926 7.976-7.893-7.976zM16.683 26.561l9.048 25.078L3.585 26.56h13.098zm19.294 6.415a1.106 1.106 0 0 0-1.424.658L28.01 51.422 19.04 26.56h33.375L30.31 51.59l6.321-17.185a1.115 1.115 0 0 0-.655-1.43zm4.486-8.642 4.937-7.995 7.033 7.995h-11.97zM10.6 16.339l4.937 7.995H3.567l7.033-7.995zM28 7.961a1.11 1.11 0 0 0 1.11-1.113V1.113A1.11 1.11 0 0 0 28 0a1.11 1.11 0 0 0-1.107 1.113v5.735A1.11 1.11 0 0 0 28 7.961zm5.272 2.395c.284 0 .568-.109.784-.326l4.037-4.055a1.117 1.117 0 0 0 0-1.575 1.105 1.105 0 0 0-1.567 0l-4.037 4.055a1.117 1.117 0 0 0 0 1.575c.216.217.5.326.783.326zm-11.543-.326a1.103 1.103 0 0 0 1.567 0 1.117 1.117 0 0 0 0-1.575L19.26 4.4a1.105 1.105 0 0 0-1.567 0 1.117 1.117 0 0 0 0 1.575l4.037 4.055z" fill="#0085FF"/><path d="M37.024 30.99a1.11 1.11 0 0 0 1.109-1.113 1.11 1.11 0 0 0-1.109-1.113 1.11 1.11 0 0 0-1.108 1.113 1.11 1.11 0 0 0 1.108 1.113z" fill="#0085FF"/></svg>