<svg width="59" height="47" fill="none" xmlns="http://www.w3.org/2000/svg"><path d="M20.06 27.43s-2.615.001-2.642.004a1.39 1.39 0 0 0-.89.4L8.672 35.64s-.002-6.915-.007-6.95a1.388 1.388 0 0 0-1.385-1.26H3.322a.538.538 0 0 1-.538-.536V3.301c0-.295.241-.535.538-.535h39.579c.297 0 .538.24.538.535v9.052c0 .764.624 1.383 1.392 1.383.769 0 1.392-.62 1.392-1.383V3.3c0-1.819-1.49-3.3-3.323-3.3H3.322C1.49 0 0 1.48 0 3.301v23.593c0 1.82 1.49 3.302 3.322 3.302H5.89v8.783a1.383 1.383 0 0 0 1.391 1.383c.363 0 .718-.14.985-.405l9.824-9.761h1.97c.77 0 1.392-.62 1.392-1.383 0-.764-.623-1.384-1.392-1.384z" fill="#0085FF"/><path d="M55.677 16.916H27.973c-1.832 0-3.323 1.48-3.323 3.301v16.095c0 1.82 1.49 3.301 3.323 3.301h17.344l7.027 6.983a1.396 1.396 0 0 0 1.517.3c.52-.215.86-.719.86-1.278v-6.005h.956c1.832 0 3.322-1.48 3.322-3.3V20.216c0-1.82-1.49-3.301-3.322-3.301zm.539 19.396a.538.538 0 0 1-.539.535h-2.348c-.733 0-1.331.563-1.386 1.277-.004.03-.006 4.155-.006 4.155l-5.054-5.021-.016-.016a1.39 1.39 0 0 0-.973-.395H27.973a.538.538 0 0 1-.539-.535V20.217c0-.295.242-.535.539-.535h27.704c.297 0 .539.24.539.535v16.095z" fill="#0085FF"/><path d="M41.825 26.88c-.768 0-1.391.62-1.391 1.384 0 .763.623 1.383 1.391 1.383.769 0 1.392-.62 1.392-1.383 0-.764-.623-1.383-1.392-1.383zM10.447 9.143c-.77 0-1.392.619-1.392 1.382 0 .764.623 1.383 1.392 1.383h25.33c.77 0 1.392-.619 1.392-1.383 0-.763-.623-1.382-1.391-1.382H10.447zm9.613 9.144h-9.613c-.77 0-1.392.62-1.392 1.383 0 .764.623 1.383 1.392 1.383h9.613c.769 0 1.392-.62 1.392-1.383 0-.764-.623-1.383-1.392-1.383zm15.299 8.593c-.769 0-1.392.62-1.392 1.384 0 .763.623 1.383 1.392 1.383.768 0 1.391-.62 1.391-1.383 0-.764-.623-1.383-1.391-1.383zm12.933 0c-.768 0-1.392.62-1.392 1.384 0 .763.624 1.383 1.392 1.383.769 0 1.392-.62 1.392-1.383 0-.764-.623-1.383-1.392-1.383z" fill="#0085FF"/></svg>