<?xml version="1.0" encoding="utf-8"?>
<!-- Generator: Adobe Illustrator 24.3.0, SVG Export Plug-In . SVG Version: 6.00 Build 0)  -->
<svg fill="#407bff" version="1.1" id="Layer_1" xmlns="http://www.w3.org/2000/svg" xmlns:xlink="http://www.w3.org/1999/xlink" x="0px" y="0px"
	 viewBox="0 0 510.5 392.6" style="enable-background:new 0 0 510.5 392.6;" xml:space="preserve">
<g>
	<g>
		<path d="M473.8,129.3c2.9,0,4.5,1.5,5.5,2.8c0.9,1.3,1.8,3.4,0.9,6.1l-77.4,220c-0.9,2.7-3.5,4.5-6.3,4.5H114.1
			c-2.8,0-5.4-1.8-6.3-4.5l-77.4-220c-1-2.7-0.1-4.8,0.9-6.1c0.9-1.3,2.6-2.8,5.5-2.8H473.8 M473.8,99.3H36.7
			c-25.3,0-43,25-34.6,48.9l77.4,220c5.2,14.7,19,24.5,34.6,24.5h282.2c15.6,0,29.4-9.8,34.6-24.5l77.4-219.9
			C516.8,124.3,499.1,99.3,473.8,99.3L473.8,99.3z"/>
	</g>
</g>
<g>
	<g>
		<rect x="317.6" y="175.7" width="30" height="140.4"/>
	</g>
	<g>
		<rect x="240.2" y="175.7" width="30" height="140.4"/>
	</g>
	<g>
		<rect x="162.9" y="175.7" width="30" height="140.4"/>
	</g>
</g>
<g>
	<g>
		<rect x="96" y="60.2" transform="matrix(0.342 -0.9397 0.9397 0.342 41.1182 209.1233)" width="147.7" height="30"/>
	</g>
	<g>
		<rect x="325.6" y="1.3" transform="matrix(0.9397 -0.342 0.342 0.9397 -5.1782 121.0335)" width="30" height="147.7"/>
	</g>
</g>
</svg>
